<svg viewBox="0 0 2188 2188" xmlns="http://www.w3.org/2000/svg"><path d="M1094 0c604.2 0 1094 489.8 1094 1094s-489.8 1094-1094 1094S0 1698.2 0 1094 489.8 0 1094 0z" fill="#e2574c"/><path d="M610.6 2075.4L1094 1094l-981.4 483.4c106.8 216.2 281.8 391.2 498 498zm966.8-1962.9L1094 1094l981.4-483.4c-52.9-107.3-123-205.2-207.6-289.8l-.7-.7c-84.5-84.5-182.4-154.6-289.7-207.6z" fill="#d95449"/><path d="M2075.4 1577.4l-981.3-483-483.5-981.9c-107.4 53-205.4 123.1-290 207.8l-.2.2a1098.23 1098.23 0 00-207.8 290.1l981.5 483.7 483.4 981.1c216.1-106.8 391.1-281.8 497.9-498z" fill="#e4645a"/><path d="M1094 722c205.4 0 372 166.5 372 372s-166.5 372-372 372-372-166.5-372-372 166.6-372 372-372z" fill="#324d5b"/><path d="M760.6 1258.2c36.3 73.4 95.7 132.9 169.2 169.2L1094 1094zm666.7-328.4c-36.3-73.4-95.7-132.9-169.2-169.2L1094 1094z" fill="#304a57"/><path d="M1094.1 1094.4L929.7 760.6C856.2 797 796.8 856.5 760.5 930l333.5 164.4 164.1 333.1c73.4-36.2 132.9-95.6 169.2-169z" fill="#425b68"/><path d="M1094 1229.1l108 59.5c9.3 5.1 20.2-3.2 18.4-14l-20.6-126 87.4-89.2c7.5-7.7 3.4-21-7-22.6l-120.8-18.4-54-114.7c-2.8-6.3-10.1-9.1-16.4-6.3-2.8 1.2-5.1 3.5-6.3 6.3l-54 114.7-120.8 18.4c-10.4 1.6-14.5 15-7 22.6l87.4 89.2-20.6 126c-1.8 10.8 9.1 19.1 18.4 14z" fill="#f2f1ef"/><path d="M1145.6 989.1L1094 1094l132.7-65.4-67.4-10.3zm-157.3 159.5l-20.6 126c-1.8 10.8 9.1 19.1 18.4 14l16.6-9.1L1094 1094l-107.4 52.9z" fill="#e9e8e6"/><path d="M1094.1 1094.4l-51.8-105.1-13.7 29-67.9 10.3 133.2 65.6 91.1 185 16.9 9.3c9.3 5.1 20.2-3.2 18.4-14l-20.6-126 1.4-1.4z" fill="#f3f2f0"/><path d="M1094 218.8c-483.4 0-875.2 391.8-875.2 875.2s391.8 875.2 875.2 875.2 875.2-391.8 875.2-875.2-391.9-875.2-875.2-875.2zm0 1509.7c-350.4 0-634.5-284.1-634.5-634.5s284-634.5 634.5-634.5 634.5 284.1 634.5 634.5-284.1 634.5-634.5 634.5z" fill="#f2f1ef"/><path d="M1480.7 308.8l-106.3 215.9c125.4 62 226.9 163.5 288.9 288.9l215.9-106.3c-85.5-173-225.5-313-398.5-398.5zM707.3 1879.1l106.4-215.9c-125.4-62-226.9-163.5-288.9-288.9l-215.9 106.3a877.107 877.107 0 00398.4 398.5z" fill="#e9e8e6"/><path d="M308.8 707.3l215.9 106.4c61.9-125.4 163.5-227 288.9-289L707.2 308.9c-172.9 85.4-313 225.5-398.4 398.4zm1570.3 773.5l-215.9-106.3c-62 125.4-163.5 226.8-288.9 288.7l106.4 215.9c172.9-85.4 312.9-225.4 398.4-398.3z" fill="#f3f2f0"/></svg>