<svg xmlns="http://www.w3.org/2000/svg" viewBox="0 0 512 512"><path d="M322.065 397.419h-41.29l-4.253 17.009c-2.354 9.417-10.815 16.023-20.522 16.023s-18.168-6.606-20.522-16.023l-4.253-17.009h-41.29l-8.258 66.065h148.645l-8.257-66.065z" fill="#dbd9dc"/><path d="M363.355 474.839h-214.71c-4.565 0-8.258-3.698-8.258-8.258s3.694-8.258 8.258-8.258h214.71c4.565 0 8.258 3.698 8.258 8.258s-3.694 8.258-8.258 8.258z" fill="#edebed"/><path d="M189.935 397.419l-2.452 19.613h48.884c-.334-.848-.664-1.7-.89-2.604l-4.253-17.009h-41.289zm85.697 19.613h48.884l-2.452-19.613h-41.29l-4.253 17.009c-.225.904-.555 1.756-.889 2.604z" fill="#c9c6ca"/><path d="M487.226 400.516H24.774C11.092 400.516 0 389.424 0 375.742V61.935c0-13.682 11.092-24.774 24.774-24.774h462.452c13.682 0 24.774 11.092 24.774 24.774v313.806c0 13.683-11.092 24.775-24.774 24.775z" fill="#edebed"/><path d="M470.71 367.484H41.29a8.258 8.258 0 01-8.258-8.258V78.452a8.258 8.258 0 018.258-8.258h429.42a8.258 8.258 0 018.258 8.258v280.774a8.258 8.258 0 01-8.258 8.258z" fill="#e6646e"/><g fill="#5d5360"><circle cx="206.45" cy="301.42" r="16.516"/><circle cx="322.06" cy="301.42" r="16.516"/></g><g fill="#edebed"><path d="M338.581 293.161H195.04c-5.766 0-11.016-2.927-14.048-7.831-3.032-4.903-3.306-10.907-.726-16.069l12.605-25.214c2.04-4.081 7-5.734 11.081-3.694s5.734 7 3.694 11.081l-12.605 25.21h143.54c4.565 0 8.258 3.698 8.258 8.258s-3.694 8.259-8.258 8.259z"/><path d="M346.839 185.806h-30.89l2.986-32.975-16.451-1.492-3.122 34.467h-26.846v-33.032H256v33.032h-25.82l-6.293-38.161-16.29 2.686 5.85 35.475h-31.77v16.517h34.493l7.257 44.008 16.291-2.686-6.814-41.322H256v41.29h16.516v-41.29h25.35l-2.955 32.629 16.452 1.492 3.09-34.121h32.386z"/></g><path d="M210.153 258.605c-10.96 0-20.677-7.189-23.766-17.972l-28.339-99.185-22.242-14.835a8.252 8.252 0 01-2.29-11.452 8.244 8.244 0 0111.452-2.29l22.25 14.831a16.493 16.493 0 016.516 8.56c.024.004.04.004.056.004l181.677 8.258a8.242 8.242 0 016.129 3.161 8.248 8.248 0 011.597 6.71l-12.984 64.935a32.958 32.958 0 01-28.532 26.327l-108.565 12.774c-.991.117-1.983.174-2.959.174zm-31.621-105.589l23.742 83.077c1.113 3.911 4.798 6.411 8.903 5.935l108.565-12.774a16.487 16.487 0 0014.274-13.165l11.097-55.5-166.581-7.573z" fill="#fff"/><path d="M161.54 142.109a8.227 8.227 0 01-4.573-1.387l-21.161-14.109a8.252 8.252 0 01-2.29-11.452 8.244 8.244 0 0111.452-2.29l21.161 14.109a8.252 8.252 0 012.29 11.452 8.243 8.243 0 01-6.879 3.677z" fill="#ffe17d"/><path d="M214.71 350.968c-91.216 0-165.161-73.945-165.161-165.161V70.194H41.29a8.258 8.258 0 00-8.258 8.258v280.774a8.258 8.258 0 008.258 8.258h429.42a8.258 8.258 0 008.258-8.258v-8.258H214.71z" fill="#dc4655"/></svg>