<svg xmlns="http://www.w3.org/2000/svg" viewBox="0 0 512 512"><path d="M465.982 221.579h-31.246a2.5 2.5 0 00-2.5 2.5v3.944a2.5 2.5 0 002.5 2.5c3.871 0 6.02.29 3.444 3.792-14.691 15.701-14.203 15.627-15.881 15.627-.833 0-1.647-.407-2.379-1.167-15.3-16.69-11.905-12.974-13.061-14.283-2.869-3.254.047-3.969 4.352-3.969a2.5 2.5 0 002.5-2.5v-3.944a2.5 2.5 0 00-2.5-2.5h-40.914a2.5 2.5 0 00-2.5 2.5v3.965a2.5 2.5 0 002.453 2.499c8.887.168 8.682 1.412 12.496 5.852l24.68 27.305c0 19.644 2.185 18.617-12.333 18.617a2.5 2.5 0 00-2.5 2.5v3.635a2.5 2.5 0 002.5 2.5h45.767a2.5 2.5 0 002.5-2.5v-3.635c0-6.094-14.834 1.874-14.834-7.282V263.7c.105-.113 20.96-22.629 21.056-22.75 7.725-9.746 8.65-10.428 14.13-10.428h2.269a2.5 2.5 0 002.5-2.5v-3.944a2.498 2.498 0 00-2.499-2.499zM62.915 237.592c0-6.013 11.475-9.258 22.271-9.258 9.089 0 20.342 3.8 25.622 8.653.429.395.865.774 1.336 1.184 9.563 8.306.433 8.366 13.27 8.366a2.5 2.5 0 002.5-2.5v-19.963a2.5 2.5 0 00-2.5-2.5h-6.223c-4.261 0-.838 7.467-6.941 3.984-7.679-4.323-15.999-6.167-27.819-6.167-24.854 0-40.912 9.105-40.912 23.194 0 18.062 22.51 18.999 45.009 22.678 17.478 2.733 23.522 3.948 23.522 9.253 0 5.874-7.205 8.802-22.015 8.947l-.526.003c-10.665 0-22.355-3.355-27.208-7.815-2.679-2.428-5.45-3.683-7.662-8.961-.828-1.974-2.436-1.534-8.355-1.534a2.5 2.5 0 00-2.5 2.5v20.796a2.5 2.5 0 002.5 2.5h6.751c3.861 0 1.961-7.503 6.333-4.987 8.459 4.488 22.533 7.17 31.253 7.17 26.678 0 41.37-8.347 41.37-23.505 0-28.994-69.076-16.711-69.076-32.038zm294.557-15.489h-35.45a2.5 2.5 0 00-2.5 2.5v3.632a2.5 2.5 0 002.5 2.5c6.604 0 11.162-.464 11.162 4.868l-.219 27.762c-46.741-43.808-43.602-41.263-45.014-41.263h-32.832a2.5 2.5 0 00-2.5 2.5v3.632c0 5.916 14.264-1.649 14.264 7.388v42.436c0 5.493-5.034 4.888-11.764 4.888a2.5 2.5 0 00-2.5 2.5v3.531a2.5 2.5 0 002.5 2.5h37.003a2.5 2.5 0 002.5-2.5v-3.531a2.5 2.5 0 00-2.5-2.5h-4.536c-5.323 0-7.302-1.325-7.302-4.888v-35.257c54.674 51.777 50.849 48.551 52.255 48.562 13.308.103 13.108.362 14.108-.63 1.056-1.047.739 2.314.739-55.11 0-8.648 12.584-1.778 12.584-7.388v-3.632a2.497 2.497 0 00-2.498-2.5zm-160.002-3.238c-32.333 0-52.418 14.229-52.418 37.133 0 22.583 19.708 36.612 51.434 36.612 33.668 0 52.979-13.762 52.979-37.756 0-21.526-20.895-35.989-51.995-35.989zm-.731 64.697c-17.86 0-28.104-10.237-28.104-28.086 0-17.583 10.567-27.668 28.991-27.668 17.669.001 27.805 10.352 27.805 28.399 0 17.641-10.19 27.355-28.692 27.355z"/><path d="M492.498 155.046H273.501a7.5 7.5 0 000 15h218.998c2.481 0 4.5 2.019 4.5 4.5v67.063a7.5 7.5 0 0014.999 0v-67.063c.001-10.751-8.748-19.5-19.5-19.5z"/><path d="M504.5 269.112a7.5 7.5 0 00-7.5 7.5v60.84c0 2.481-2.019 4.5-4.5 4.5H19.501a4.505 4.505 0 01-4.5-4.5V174.548c0-2.481 2.019-4.5 4.5-4.5h218.997a7.5 7.5 0 000-15H19.501C8.749 155.046 0 163.795 0 174.548v162.905c0 10.753 8.749 19.501 19.501 19.501h472.998c10.753 0 19.501-8.749 19.501-19.501v-60.84a7.501 7.501 0 00-7.5-7.501z"/></svg>