<svg xmlns="http://www.w3.org/2000/svg" viewBox="0 0 512 512"><path d="M273.963 149.101H99.8a7.5 7.5 0 00-7.5 7.5v198.8a7.5 7.5 0 007.5 7.5h49.7a7.5 7.5 0 007.5-7.5V206.843h92.219c14.897 0 27.69 13.109 27.469 27.638a8.067 8.067 0 000 .22c.564 40.007-.176 80.624 0 120.733.019 4.129 3.583 7.467 7.712 7.467h49.699a7.5 7.5 0 007.5-7.498l.036-138.345c.001-36.202-31.622-67.957-67.672-67.957zm52.638 198.8h-34.912c-.088-37.656.528-75.687 0-113.309.278-22.82-19.228-42.75-42.47-42.75H149.5a7.5 7.5 0 00-7.5 7.5V347.9h-34.7V164.101h166.662c28.06 0 52.672 24.746 52.672 52.954l-.033 130.846zm92.698-198.8h-49.7a7.5 7.5 0 00-7.5 7.5v198.8c0 4.143 3.357 7.5 7.5 7.5h49.7c4.143 0 7.5-3.357 7.5-7.5v-198.8a7.498 7.498 0 00-7.5-7.5zm-7.5 198.8H377.1v-183.8h34.699v183.8z"/><path d="M241.8 227.2h-49.7a7.5 7.5 0 00-7.5 7.5v120.7a7.5 7.5 0 007.5 7.5h49.7c4.143 0 7.5-3.357 7.5-7.5V234.701a7.5 7.5 0 00-7.5-7.501zm-7.501 120.701H199.6v-105.7h34.699v105.7zM504.5.001H273.501a7.5 7.5 0 00-7.5 7.5 7.5 7.5 0 007.5 7.5h223.498v223.497c0 4.143 3.357 7.5 7.5 7.5s7.5-3.357 7.5-7.5V7.501a7.499 7.499 0 00-7.499-7.5z"/><path d="M504.5 266.001a7.499 7.499 0 00-7.5 7.5v223.498H15.001V15.001h223.497a7.5 7.5 0 000-15H7.5a7.5 7.5 0 00-7.5 7.5v496.998a7.5 7.5 0 007.5 7.5h497c4.143 0 7.5-3.357 7.5-7.5V273.501a7.5 7.5 0 00-7.5-7.5z"/></svg>