<?xml version="1.0" encoding="iso-8859-1"?>
<!-- Generator: Adobe Illustrator 19.0.0, SVG Export Plug-In . SVG Version: 6.00 Build 0)  -->
<svg version="1.1" id="Capa_1" xmlns="http://www.w3.org/2000/svg" xmlns:xlink="http://www.w3.org/1999/xlink" x="0px" y="0px"
	 viewBox="0 0 512 512" style="enable-background:new 0 0 512 512;" xml:space="preserve">
<g>
	<g>
		<path  d="M465.982,221.579h-31.246c-1.381,0-2.5,1.119-2.5,2.5v3.944c0,1.381,1.119,2.5,2.5,2.5c3.871,0,6.02,0.29,3.444,3.792
			c-14.691,15.701-14.203,15.627-15.881,15.627c-0.833,0-1.647-0.407-2.379-1.167c-15.3-16.69-11.905-12.974-13.061-14.283
			c-2.869-3.254,0.047-3.969,4.352-3.969c1.381,0,2.5-1.119,2.5-2.5v-3.944c0-1.381-1.119-2.5-2.5-2.5h-40.914
			c-1.381,0-2.5,1.119-2.5,2.5v3.965c0,1.362,1.091,2.474,2.453,2.499c8.887,0.168,8.682,1.412,12.496,5.852l24.68,27.305
			c0,19.644,2.185,18.617-12.333,18.617c-1.381,0-2.5,1.119-2.5,2.5v3.635c0,1.381,1.119,2.5,2.5,2.5h45.767
			c1.381,0,2.5-1.119,2.5-2.5v-3.635c0-6.094-14.834,1.874-14.834-7.282v-13.835c0.105-0.113,20.96-22.629,21.056-22.75
			c7.725-9.746,8.65-10.428,14.13-10.428h2.269c1.381,0,2.5-1.119,2.5-2.5v-3.944C468.482,222.698,467.363,221.579,465.982,221.579z
			"/>
	</g>
</g>
<g>
	<g>
		<path  d="M62.915,237.592c0-6.013,11.475-9.258,22.271-9.258c9.089,0,20.342,3.8,25.622,8.653c0.429,0.395,0.865,0.774,1.336,1.184
			c9.563,8.306,0.433,8.366,13.27,8.366c1.381,0,2.5-1.119,2.5-2.5v-19.963c0-1.381-1.119-2.5-2.5-2.5h-6.223
			c-4.261,0-0.838,7.467-6.941,3.984c-7.679-4.323-15.999-6.167-27.819-6.167c-24.854,0-40.912,9.105-40.912,23.194
			c0,18.062,22.51,18.999,45.009,22.678c17.478,2.733,23.522,3.948,23.522,9.253c0,5.874-7.205,8.802-22.015,8.947l-0.526,0.003
			c-10.665,0-22.355-3.355-27.208-7.815c-2.679-2.428-5.45-3.683-7.662-8.961c-0.828-1.974-2.436-1.534-8.355-1.534
			c-1.381,0-2.5,1.119-2.5,2.5v20.796c0,1.381,1.119,2.5,2.5,2.5h6.751c3.861,0,1.961-7.503,6.333-4.987
			c8.459,4.488,22.533,7.17,31.253,7.17c26.678,0,41.37-8.347,41.37-23.505C131.991,240.636,62.915,252.919,62.915,237.592z"/>
	</g>
</g>
<g>
	<g>
		<path  d="M357.472,222.103h-35.45c-1.381,0-2.5,1.119-2.5,2.5v3.632c0,1.381,1.119,2.5,2.5,2.5c6.604,0,11.162-0.464,11.162,4.868
			l-0.219,27.762c-46.741-43.808-43.602-41.263-45.014-41.263h-32.832c-1.381,0-2.5,1.119-2.5,2.5v3.632
			c0,5.916,14.264-1.649,14.264,7.388v42.436c0,5.493-5.034,4.888-11.764,4.888c-1.381,0-2.5,1.119-2.5,2.5v3.531
			c0,1.381,1.119,2.5,2.5,2.5h37.003c1.381,0,2.5-1.119,2.5-2.5v-3.531c0-1.381-1.119-2.5-2.5-2.5h-4.536
			c-5.323,0-7.302-1.325-7.302-4.888v-35.257c54.674,51.777,50.849,48.551,52.255,48.562c13.308,0.103,13.108,0.362,14.108-0.63
			c1.056-1.047,0.739,2.314,0.739-55.11c0-8.648,12.584-1.778,12.584-7.388v-3.632C359.972,223.223,358.853,222.103,357.472,222.103
			z"/>
	</g>
</g>
<g>
	<g>
		<path  d="M197.47,218.865c-32.333,0-52.418,14.229-52.418,37.133c0,22.583,19.708,36.612,51.434,36.612
			c33.668,0,52.979-13.762,52.979-37.756C249.465,233.328,228.57,218.865,197.47,218.865z M196.739,283.562
			c-17.86,0-28.104-10.237-28.104-28.086c0-17.583,10.567-27.668,28.991-27.668c17.669,0.001,27.805,10.352,27.805,28.399
			C225.431,273.848,215.241,283.562,196.739,283.562z"/>
	</g>
</g>
<g>
	<g>
		<path  d="M492.498,155.046H273.501c-4.142,0-7.5,3.358-7.5,7.5c0,4.142,3.358,7.5,7.5,7.5h218.998c2.481,0,4.5,2.019,4.5,4.5
			v67.063c0,4.142,3.358,7.5,7.5,7.5c4.142,0,7.5-3.358,7.499-7.5v-67.063C511.999,163.795,503.25,155.046,492.498,155.046z"/>
	</g>
</g>
<g>
	<g>
		<path  d="M504.5,269.112c-4.142,0-7.5,3.358-7.5,7.5v60.84c0,2.481-2.019,4.5-4.5,4.5H19.501c-2.481,0-4.5-2.019-4.5-4.5V174.548
			c0-2.481,2.019-4.5,4.5-4.5h218.997c4.142,0,7.5-3.358,7.5-7.5c0-4.142-3.358-7.5-7.5-7.5H19.501
			C8.749,155.046,0,163.795,0,174.548v162.905c0,10.753,8.749,19.501,19.501,19.501h472.998c10.753,0,19.501-8.749,19.501-19.501
			v-60.84C512,272.471,508.642,269.112,504.5,269.112z"/>
	</g>
</g>
<g>
</g>
<g>
</g>
<g>
</g>
<g>
</g>
<g>
</g>
<g>
</g>
<g>
</g>
<g>
</g>
<g>
</g>
<g>
</g>
<g>
</g>
<g>
</g>
<g>
</g>
<g>
</g>
<g>
</g>
</svg>
