<?xml version="1.0" encoding="iso-8859-1"?>
<!-- Generator: Adobe Illustrator 19.0.0, SVG Export Plug-In . SVG Version: 6.00 Build 0)  -->
<svg version="1.1" id="Capa_1" xmlns="http://www.w3.org/2000/svg" xmlns:xlink="http://www.w3.org/1999/xlink" x="0px" y="0px"
	 viewBox="0 0 512 512" style="enable-background:new 0 0 512 512;" xml:space="preserve">
<g>
	<g>
		<path fill="#fff" d="M273.963,149.101H99.8c-4.142,0-7.5,3.358-7.5,7.5v198.8c0,4.143,3.358,7.5,7.5,7.5h49.7c4.142,0,7.5-3.357,7.5-7.5
			V206.843h92.219c14.897,0,27.69,13.109,27.469,27.638c-0.001,0.073-0.001,0.146,0,0.22c0.564,40.007-0.176,80.624,0,120.733
			c0.019,4.129,3.583,7.467,7.712,7.467h49.699c4.142,0,7.499-3.356,7.5-7.498l0.036-138.345
			C341.636,180.856,310.013,149.101,273.963,149.101z M326.601,347.901h-34.912c-0.088-37.656,0.528-75.687,0-113.309
			c0.278-22.82-19.228-42.75-42.47-42.75H149.5c-4.142,0-7.5,3.357-7.5,7.5v148.558H107.3V164.101h166.662
			c28.06,0,52.672,24.746,52.672,52.954L326.601,347.901z"/>
	</g>
</g>
<g>
	<g>
		<path fill="#fff" d="M419.299,149.101h-49.7c-4.143,0-7.5,3.358-7.5,7.5v198.8c0,4.143,3.357,7.5,7.5,7.5h49.7c4.143,0,7.5-3.357,7.5-7.5
			v-198.8C426.8,152.459,423.443,149.101,419.299,149.101z M411.799,347.901H377.1V164.101h34.699V347.901z"/>
	</g>
</g>
<g>
	<g>
		<path fill="#fff" d="M241.8,227.2h-49.7c-4.142,0-7.5,3.357-7.5,7.5V355.4c0,4.143,3.358,7.5,7.5,7.5h49.7c4.143,0,7.5-3.357,7.5-7.5V234.701
			C249.3,230.559,245.943,227.2,241.8,227.2z M234.299,347.901H199.6V242.201h34.699V347.901z"/>
	</g>
</g>
<g>
	<g>
		<path fill="#fff" d="M504.5,0.001H273.501c-4.143,0-7.5,3.358-7.5,7.5c0,4.142,3.357,7.5,7.5,7.5h223.498v223.497c0,4.143,3.357,7.5,7.5,7.5
			c4.143,0,7.5-3.357,7.5-7.5V7.501C512,3.359,508.642,0.001,504.5,0.001z"/>
	</g>
</g>
<g>
	<g>
		<path fill="#fff" d="M504.5,266.001c-4.143,0-7.5,3.357-7.5,7.5v223.498H15.001V15.001h223.497c4.142,0,7.5-3.358,7.5-7.5
			c0-4.142-3.358-7.5-7.5-7.5H7.5c-4.142,0-7.5,3.358-7.5,7.5v496.998c0,4.143,3.358,7.5,7.5,7.5H504.5c4.143,0,7.5-3.357,7.5-7.5
			V273.501C512,269.359,508.642,266.001,504.5,266.001z"/>
	</g>
</g>
<g>
</g>
<g>
</g>
<g>
</g>
<g>
</g>
<g>
</g>
<g>
</g>
<g>
</g>
<g>
</g>
<g>
</g>
<g>
</g>
<g>
</g>
<g>
</g>
<g>
</g>
<g>
</g>
<g>
</g>
</svg>
